<?xml version="1.0" encoding="iso-8859-1"?>
<!DOCTYPE svg PUBLIC "-//W3C//DTD SVG 1.1//EN" "http://www.w3.org/Graphics/SVG/1.1/DTD/svg11.dtd">
<svg 
 version="1.1" xmlns="http://www.w3.org/2000/svg" xmlns:xlink="http://www.w3.org/1999/xlink" x="0px" y="0px" width="512px"
	 height="512px" viewBox="0 0 512 512" style="enable-background:new 0 0 512 512;" xml:space="preserve"
><g id="9f7e7d65bebc9157b4431a86ec13ab5a"><g></g><g fill="#166af2"><path style="display: inline;" d="M482.808,141.499h0.304v351.076c0,10.409-8.517,18.926-18.926,18.926H104.593
		c-10.409,0-18.926-8.517-18.926-18.926v-79.012h37.852v60.086h321.74V151.907H359.15c-15.097,0-27.447-12.354-27.447-27.446V38.352
		H123.519v170.333H85.667V19.426c0-10.409,8.517-18.926,18.926-18.926h236.101v0.066c3.017,0.277,6.588,2.24,10.42,6.069
		l125.861,125.862C480.221,135.743,482.128,138.804,482.808,141.499z M28.889,375.711V246.538c0-10.41,8.517-18.927,18.926-18.927
		H350.63c10.409,0,18.926,8.517,18.926,18.927v129.173c0,10.409-8.517,18.926-18.926,18.926H47.814
		C37.405,394.637,28.889,386.12,28.889,375.711z M256.182,310.287l-23.573,38.424c-0.731,1.275-1.094,2.366-1.094,3.271
		c0,2.362,1.298,4.429,3.889,6.199c2.588,1.774,5.153,2.662,7.696,2.662c2.18,0,3.814-0.954,4.908-2.865l19.895-35.021
		l20.028,35.021c0.997,1.911,2.591,2.865,4.769,2.865c2.635,0,5.227-0.888,7.77-2.662c2.543-1.771,3.814-3.837,3.814-6.199
		c0-0.998-0.318-2.088-0.953-3.271l-23.577-38.424l22.759-38.292c0.818-1.36,1.225-2.632,1.225-3.815
		c0-2.27-1.205-4.225-3.607-5.862c-2.411-1.634-4.976-2.45-7.7-2.45c-2.547,0-4.543,1.274-5.996,3.818l-18.53,33.383l-18.534-33.383
		c-1.36-2.544-3.319-3.818-5.858-3.818c-2.725,0-5.294,0.816-7.7,2.45c-2.41,1.638-3.611,3.593-3.611,5.862
		c0,1.184,0.41,2.455,1.228,3.815L256.182,310.287z M190.229,354.574c0,1.723,0.861,3.09,2.591,4.088
		c1.723,0.998,3.815,1.498,6.267,1.498c2.361,0,4.428-0.5,6.198-1.498c1.774-0.998,2.657-2.365,2.657-4.088V266
		c0-1.82-0.86-3.18-2.591-4.09c-1.722-0.908-3.814-1.359-6.265-1.359c-2.451,0-4.544,0.451-6.267,1.359
		c-1.729,0.91-2.591,2.27-2.591,4.09V354.574z M94.16,354.574c0,1.723,0.862,3.09,2.59,4.088c1.725,0.998,3.815,1.498,6.268,1.498
		c2.362,0,4.429-0.5,6.201-1.498c1.771-0.998,2.656-2.365,2.656-4.088v-54.781l29.298,54.781c1.996,3.727,5.404,5.586,10.217,5.586
		c2.365,0,4.433-0.5,6.203-1.498c1.774-0.998,2.657-2.365,2.657-4.088V266c0-1.82-0.864-3.18-2.591-4.09
		c-1.723-0.908-3.814-1.359-6.27-1.359c-2.45,0-4.539,0.451-6.266,1.359c-1.727,0.91-2.589,2.27-2.589,4.09v54.781l-26.299-50.83
		c-2.092-3.908-3.999-6.451-5.724-7.634c-1.727-1.176-4.226-1.767-7.495-1.767c-2.452,0-4.543,0.473-6.268,1.427
		c-1.728,0.953-2.59,2.343-2.59,4.159V354.574z"></path></g></g></svg>